<?xml version="1.0" standalone="no"?>
<!DOCTYPE svg PUBLIC "-//W3C//DTD SVG 20010904//EN"
 "http://www.w3.org/TR/2001/REC-SVG-20010904/DTD/svg10.dtd">
<svg version="1.0" xmlns="http://www.w3.org/2000/svg"
 width="392.000000pt" height="392.000000pt" viewBox="0 0 392.000000 392.000000"
 preserveAspectRatio="xMidYMid meet">
<metadata>
Created by potrace 1.11, written by Peter Selinger 2001-2013
</metadata>
<g transform="translate(0.000000,392.000000) scale(0.100000,-0.100000)"
fill="#000000" stroke="none">
<path d="M0 1955 l0 -1955 1960 0 1960 0 0 1955 0 1955 -1960 0 -1960 0 0
-1955z m2973 1487 c82 -78 80 -82 -43 -107 -115 -23 -179 -55 -239 -121 -85
-92 -102 -198 -50 -310 32 -69 153 -188 224 -220 125 -58 249 -37 346 57 62
60 94 130 110 240 7 46 17 89 23 96 8 9 34 -9 106 -76 l95 -88 -18 -54 c-58
-183 -234 -374 -409 -446 -46 -19 -88 -27 -154 -31 -106 -5 -171 10 -279 66
-90 47 -237 191 -282 278 -113 213 -71 432 118 624 75 75 175 144 264 182 l60
25 30 -24 c17 -14 61 -55 98 -91z m-604 -1106 l280 -449 -107 -113 c-58 -63
-108 -114 -109 -114 -4 0 -425 219 -563 293 -81 43 -92 47 -79 26 89 -136 369
-588 369 -595 0 -5 -48 -58 -108 -117 l-107 -107 -400 211 c-220 116 -446 235
-503 265 l-102 55 97 105 c62 66 104 103 114 101 9 -3 156 -86 328 -187 172
-100 314 -180 315 -178 2 1 -86 144 -195 317 l-198 315 29 35 c16 20 60 67 97
104 l69 68 332 -181 c182 -99 334 -180 336 -180 3 0 -89 140 -205 312 l-209
312 102 103 102 103 17 -28 c10 -15 144 -229 298 -476z m-1346 -860 c-9 -12
-62 -67 -117 -124 l-101 -102 35 -34 c19 -18 163 -152 320 -297 157 -144 286
-265 288 -268 1 -4 -43 -51 -98 -106 l-100 -99 -52 50 c-29 28 -174 163 -321
299 l-269 248 -121 -121 -122 -120 -77 72 -77 72 336 346 336 347 79 -71 c76
-69 78 -72 61 -92z m2451 -822 c10 -4 16 -18 16 -41 0 -30 -3 -34 -17 -28 -54
23 -93 28 -118 17 -39 -18 -26 -33 43 -52 79 -22 102 -42 102 -90 0 -78 -100
-121 -212 -89 -36 9 -38 12 -38 49 l0 39 43 -19 c45 -21 93 -25 116 -11 25 16
4 37 -52 50 -119 26 -145 125 -44 172 41 19 115 21 161 3z m-254 -24 c0 -29
-2 -30 -45 -30 l-45 0 0 -115 0 -115 -40 0 -40 0 0 115 0 115 -45 0 c-43 0
-45 1 -45 30 l0 30 130 0 130 0 0 -30z"/>
</g>
</svg>
